<svg width="626" height="455" viewBox="0 0 626 455" fill="none" xmlns="http://www.w3.org/2000/svg">
<g opacity="0.15">
<path opacity="0.15" d="M3.5 194.9H82.9V233.6H3.5" stroke="#474747" stroke-width="6" stroke-miterlimit="10" stroke-linecap="round" stroke-linejoin="round"/>
<path opacity="0.15" d="M162.2 233.6H82.9" stroke="#474747" stroke-width="6" stroke-miterlimit="10" stroke-linecap="round" stroke-linejoin="round"/>
<path opacity="0.15" d="M82.9 194.9H113.3" stroke="#474747" stroke-width="6" stroke-miterlimit="10" stroke-linecap="round" stroke-linejoin="round"/>
<path opacity="0.15" d="M122.5 233.6H43.2V272.3H122.5V233.6Z" stroke="#474747" stroke-width="6" stroke-miterlimit="10" stroke-linecap="round" stroke-linejoin="round"/>
<path opacity="0.15" d="M15.9 272.5H82.9V311.2H57.2" stroke="#474747" stroke-width="6" stroke-miterlimit="10" stroke-linecap="round" stroke-linejoin="round"/>
<path opacity="0.15" d="M162.2 272.5H82.9V311.2H162.2V272.5Z" stroke="#474747" stroke-width="6" stroke-miterlimit="10" stroke-linecap="round" stroke-linejoin="round"/>
<path opacity="0.15" d="M426.5 335H505.9V373.6H426.5" stroke="#474747" stroke-width="6" stroke-miterlimit="10" stroke-linecap="round" stroke-linejoin="round"/>
<path opacity="0.15" d="M585.2 373.6H505.9" stroke="#474747" stroke-width="6" stroke-miterlimit="10" stroke-linecap="round" stroke-linejoin="round"/>
<path opacity="0.15" d="M505.9 335H536.3" stroke="#474747" stroke-width="6" stroke-miterlimit="10" stroke-linecap="round" stroke-linejoin="round"/>
<path opacity="0.15" d="M545.5 373.6H466.2V412.3H545.5V373.6Z" stroke="#474747" stroke-width="6" stroke-miterlimit="10" stroke-linecap="round" stroke-linejoin="round"/>
<path opacity="0.15" d="M438.9 412.5H505.9V451.2H480.2" stroke="#474747" stroke-width="6" stroke-miterlimit="10" stroke-linecap="round" stroke-linejoin="round"/>
<path opacity="0.15" d="M557 451.2H505.9V412.5H572" stroke="#474747" stroke-width="6" stroke-miterlimit="10" stroke-linecap="round" stroke-linejoin="round"/>
<path opacity="0.15" d="M290.9 50H167.8V149.8H290.9V50Z" stroke="#474747" stroke-width="6" stroke-miterlimit="10" stroke-linecap="round" stroke-linejoin="round"/>
<path opacity="0.15" d="M184.8 126.7L207.3 94L230.7 122.9" stroke="#474747" stroke-width="6" stroke-miterlimit="10" stroke-linecap="round" stroke-linejoin="round"/>
<path opacity="0.15" d="M222.1 112.3L253.6 81.8L275.9 126.7" stroke="#474747" stroke-width="6" stroke-miterlimit="10" stroke-linecap="round" stroke-linejoin="round"/>
<path opacity="0.15" d="M213.9 102.1C215.5 97.4 219.9 94 225.1 94C229.4 94 233.2 96.3 235.3 99.8" stroke="#474747" stroke-width="6" stroke-miterlimit="10" stroke-linecap="round" stroke-linejoin="round"/>
<path opacity="0.15" d="M611 217.2H435.9C429.4 217.2 424.2 212 424.2 205.5C424.2 199 429.4 193.8 435.9 193.8H611C617.5 193.8 622.7 199 622.7 205.5C622.7 212 617.5 217.2 611 217.2Z" stroke="#474747" stroke-width="6" stroke-miterlimit="10" stroke-linecap="round" stroke-linejoin="round"/>
<path opacity="0.15" d="M550.8 193.8H499.5L488.9 128.3H561.5L550.8 193.8Z" stroke="#474747" stroke-width="6" stroke-miterlimit="10" stroke-linecap="round" stroke-linejoin="round"/>
<path opacity="0.15" d="M571.5 109.3H479.2V128.3H571.5V109.3Z" stroke="#474747" stroke-width="6" stroke-miterlimit="10" stroke-linecap="round" stroke-linejoin="round"/>
<g opacity="0.15">
<path opacity="0.15" d="M537.1 109.3C530.8 109.3 524.5 109.3 518.2 109.3C513 91.2 508.5 72.2 509.1 53.6C509.8 44.7 519.4 37.2 527.7 37.2C536 37.2 545.6 44.7 546.3 53.6C546.7 72.2 542.2 91.2 537.1 109.3Z" stroke="#474747" stroke-width="6" stroke-miterlimit="10" stroke-linecap="round" stroke-linejoin="round"/>
</g>
<path opacity="0.15" d="M546.7 51.4L559.8 29.7C562.3 25.5 568 24.6 571.7 27.8C575.4 31 575.3 36.7 571.5 39.8L546.9 60" stroke="#474747" stroke-width="6" stroke-miterlimit="10" stroke-linecap="round" stroke-linejoin="round"/>
<path opacity="0.15" d="M560 29.5L553.8 10.1C552.8 7.09999 554.8 3.99999 557.9 3.59999C561 3.19999 563.7 5.59998 563.7 8.69998L563.2 24.4" stroke="#474747" stroke-width="6" stroke-miterlimit="10" stroke-linecap="round" stroke-linejoin="round"/>
</g>
</svg>
